<?xml version="1.0" encoding="utf-8"?>
<svg viewBox="0 0 500 500" xmlns="http://www.w3.org/2000/svg">
  <path style="fill: rgb(206, 188, 220); paint-order: stroke markers; stroke: rgb(206, 188, 220);" d="M 115.51 110.516 C 112.957 101.749 154.172 65.527 167.286 110.564 C 209.31 86.716 212.838 129.584 195.292 139.541 C 230.537 165.769 187.425 179.065 182.503 167.901 C 191.434 172.705 161.884 194.331 140.493 182.826 C 139.85 190.607 95.357 202.877 97.568 176.118 C 94.721 183.058 60.341 182.834 74.963 147.181 C 67.603 150.522 62.855 132.293 75.234 126.675 C 64.046 117.692 85.35 86.303 115.51 110.516 Z"/>
  <path style="paint-order: stroke markers; stroke: rgb(206, 188, 220); fill: rgb(188, 217, 220);" d="M 281.018 98.397 C 278.465 107.164 319.68 143.386 332.794 98.349 C 374.818 122.197 378.346 79.329 360.8 69.372 C 396.045 43.144 352.933 29.848 348.011 41.012 C 356.942 36.208 327.392 14.582 306.001 26.087 C 305.358 18.306 260.865 6.036 263.076 32.795 C 260.229 25.855 225.849 26.079 240.471 61.732 C 233.111 58.391 228.363 76.62 240.742 82.238 C 229.554 91.221 250.858 122.61 281.018 98.397 Z" transform="matrix(-1, 0, 0, -1, 607.650528, 136.881676)"/>
  <path style="paint-order: stroke markers; stroke: rgb(206, 188, 220); fill: rgb(220, 188, 196);" d="M 306.888 169.681 C 304.335 160.914 345.55 124.692 358.664 169.729 C 400.688 145.881 404.216 188.749 386.67 198.706 C 421.915 224.934 378.803 238.23 373.881 227.066 C 382.812 231.87 353.262 253.496 331.871 241.991 C 331.228 249.772 286.735 262.042 288.946 235.283 C 286.099 242.223 251.719 241.999 266.341 206.346 C 258.981 209.687 254.233 191.458 266.612 185.84 C 255.424 176.857 276.728 145.468 306.888 169.681 Z"/>
  <path style="paint-order: stroke markers; stroke: rgb(206, 188, 220); fill: rgb(195, 200, 243);" d="M 322.655 300.685 C 320.102 291.918 361.317 255.696 374.431 300.733 C 416.455 276.885 419.983 319.753 402.437 329.71 C 437.682 355.938 394.57 369.234 389.648 358.07 C 398.579 362.874 369.029 384.5 347.638 372.995 C 346.995 380.776 302.502 393.046 304.713 366.287 C 301.866 373.227 267.486 373.003 282.108 337.35 C 274.748 340.691 270 322.462 282.379 316.844 C 271.191 307.861 292.495 276.472 322.655 300.685 Z"/>
  <path style="paint-order: stroke markers; stroke: rgb(206, 188, 220); fill: rgb(204, 238, 215);" d="M 124.787 453.414 C 122.234 462.181 163.449 498.403 176.563 453.366 C 218.587 477.214 222.115 434.346 204.569 424.389 C 239.814 398.161 196.702 384.865 191.78 396.029 C 200.711 391.225 171.161 369.599 149.77 381.104 C 149.127 373.323 104.634 361.053 106.845 387.812 C 103.998 380.872 69.618 381.096 84.24 416.749 C 76.88 413.408 72.132 431.637 84.511 437.255 C 73.323 446.238 94.627 477.627 124.787 453.414 Z" transform="matrix(-1, 0, 0, -1, 295.188507, 846.91571)"/>
  <path style="paint-order: stroke markers; stroke: rgb(206, 188, 220); fill: rgb(156, 204, 230);" d="M 112.72 311.426 C 110.167 320.193 151.382 356.415 164.496 311.378 C 206.52 335.226 210.048 292.358 192.502 282.401 C 227.747 256.173 184.635 242.877 179.713 254.041 C 188.644 249.237 159.094 227.611 137.703 239.116 C 137.06 231.335 92.567 219.065 94.778 245.824 C 91.931 238.884 57.551 239.108 72.173 274.761 C 64.813 271.42 60.065 289.649 72.444 295.267 C 61.256 304.25 82.56 335.639 112.72 311.426 Z"/>
</svg>